<mxfile host="app.diagrams.net" agent="Mozilla/5.0 (Macintosh; Intel Mac OS X 10_15_7) AppleWebKit/537.36 (KHTML, like Gecko) Chrome/135.0.0.0 Safari/537.36" version="26.1.3">
  <diagram name="Sivu-1" id="H4ITOkI1rLtlPbM0a788">
    <mxGraphModel dx="2049" dy="1136" grid="1" gridSize="10" guides="1" tooltips="1" connect="1" arrows="1" fold="1" page="1" pageScale="1" pageWidth="827" pageHeight="1169" math="0" shadow="0">
      <root>
        <mxCell id="0" />
        <mxCell id="1" parent="0" />
        <mxCell id="tsIf0ZZTyAxKja018i5l-1" value="Motor" style="swimlane;fontStyle=0;childLayout=stackLayout;horizontal=1;startSize=30;horizontalStack=0;resizeParent=1;resizeParentMax=0;resizeLast=0;collapsible=1;marginBottom=0;whiteSpace=wrap;html=1;" vertex="1" parent="1">
          <mxGeometry x="310" y="460" width="140" height="210" as="geometry" />
        </mxCell>
        <mxCell id="tsIf0ZZTyAxKja018i5l-2" value="init_motor()" style="text;strokeColor=none;fillColor=none;align=left;verticalAlign=middle;spacingLeft=4;spacingRight=4;overflow=hidden;points=[[0,0.5],[1,0.5]];portConstraint=eastwest;rotatable=0;whiteSpace=wrap;html=1;" vertex="1" parent="tsIf0ZZTyAxKja018i5l-1">
          <mxGeometry y="30" width="140" height="30" as="geometry" />
        </mxCell>
        <mxCell id="tsIf0ZZTyAxKja018i5l-3" value="step()" style="text;strokeColor=none;fillColor=none;align=left;verticalAlign=middle;spacingLeft=4;spacingRight=4;overflow=hidden;points=[[0,0.5],[1,0.5]];portConstraint=eastwest;rotatable=0;whiteSpace=wrap;html=1;" vertex="1" parent="tsIf0ZZTyAxKja018i5l-1">
          <mxGeometry y="60" width="140" height="30" as="geometry" />
        </mxCell>
        <mxCell id="tsIf0ZZTyAxKja018i5l-4" value="move_by_angle()" style="text;strokeColor=none;fillColor=none;align=left;verticalAlign=middle;spacingLeft=4;spacingRight=4;overflow=hidden;points=[[0,0.5],[1,0.5]];portConstraint=eastwest;rotatable=0;whiteSpace=wrap;html=1;" vertex="1" parent="tsIf0ZZTyAxKja018i5l-1">
          <mxGeometry y="90" width="140" height="30" as="geometry" />
        </mxCell>
        <mxCell id="tsIf0ZZTyAxKja018i5l-7" value="move_to_angle()" style="text;strokeColor=none;fillColor=none;align=left;verticalAlign=middle;spacingLeft=4;spacingRight=4;overflow=hidden;points=[[0,0.5],[1,0.5]];portConstraint=eastwest;rotatable=0;whiteSpace=wrap;html=1;" vertex="1" parent="tsIf0ZZTyAxKja018i5l-1">
          <mxGeometry y="120" width="140" height="30" as="geometry" />
        </mxCell>
        <mxCell id="tsIf0ZZTyAxKja018i5l-5" value="get_steps()" style="text;strokeColor=none;fillColor=none;align=left;verticalAlign=middle;spacingLeft=4;spacingRight=4;overflow=hidden;points=[[0,0.5],[1,0.5]];portConstraint=eastwest;rotatable=0;whiteSpace=wrap;html=1;" vertex="1" parent="tsIf0ZZTyAxKja018i5l-1">
          <mxGeometry y="150" width="140" height="30" as="geometry" />
        </mxCell>
        <mxCell id="tsIf0ZZTyAxKja018i5l-6" value="get_angle()" style="text;strokeColor=none;fillColor=none;align=left;verticalAlign=middle;spacingLeft=4;spacingRight=4;overflow=hidden;points=[[0,0.5],[1,0.5]];portConstraint=eastwest;rotatable=0;whiteSpace=wrap;html=1;" vertex="1" parent="tsIf0ZZTyAxKja018i5l-1">
          <mxGeometry y="180" width="140" height="30" as="geometry" />
        </mxCell>
        <mxCell id="tsIf0ZZTyAxKja018i5l-10" value="Cooling" style="swimlane;fontStyle=0;childLayout=stackLayout;horizontal=1;startSize=30;horizontalStack=0;resizeParent=1;resizeParentMax=0;resizeLast=0;collapsible=1;marginBottom=0;whiteSpace=wrap;html=1;" vertex="1" parent="1">
          <mxGeometry x="700" y="160" width="140" height="120" as="geometry" />
        </mxCell>
        <mxCell id="tsIf0ZZTyAxKja018i5l-12" value="run()" style="text;strokeColor=none;fillColor=none;align=left;verticalAlign=middle;spacingLeft=4;spacingRight=4;overflow=hidden;points=[[0,0.5],[1,0.5]];portConstraint=eastwest;rotatable=0;whiteSpace=wrap;html=1;" vertex="1" parent="tsIf0ZZTyAxKja018i5l-10">
          <mxGeometry y="30" width="140" height="30" as="geometry" />
        </mxCell>
        <mxCell id="tsIf0ZZTyAxKja018i5l-11" value="map_temp_to_speed()" style="text;strokeColor=none;fillColor=none;align=left;verticalAlign=middle;spacingLeft=4;spacingRight=4;overflow=hidden;points=[[0,0.5],[1,0.5]];portConstraint=eastwest;rotatable=0;whiteSpace=wrap;html=1;" vertex="1" parent="tsIf0ZZTyAxKja018i5l-10">
          <mxGeometry y="60" width="140" height="30" as="geometry" />
        </mxCell>
        <mxCell id="tsIf0ZZTyAxKja018i5l-13" value="shutdown()" style="text;strokeColor=none;fillColor=none;align=left;verticalAlign=middle;spacingLeft=4;spacingRight=4;overflow=hidden;points=[[0,0.5],[1,0.5]];portConstraint=eastwest;rotatable=0;whiteSpace=wrap;html=1;" vertex="1" parent="tsIf0ZZTyAxKja018i5l-10">
          <mxGeometry y="90" width="140" height="30" as="geometry" />
        </mxCell>
        <mxCell id="tsIf0ZZTyAxKja018i5l-32" style="edgeStyle=orthogonalEdgeStyle;rounded=0;orthogonalLoop=1;jettySize=auto;html=1;entryX=0.5;entryY=0;entryDx=0;entryDy=0;exitX=0.5;exitY=1;exitDx=0;exitDy=0;" edge="1" parent="1" source="tsIf0ZZTyAxKja018i5l-34" target="tsIf0ZZTyAxKja018i5l-1">
          <mxGeometry relative="1" as="geometry">
            <mxPoint x="260" y="270" as="sourcePoint" />
          </mxGeometry>
        </mxCell>
        <mxCell id="tsIf0ZZTyAxKja018i5l-31" style="edgeStyle=orthogonalEdgeStyle;rounded=0;orthogonalLoop=1;jettySize=auto;html=1;entryX=0.5;entryY=0;entryDx=0;entryDy=0;" edge="1" parent="1" source="tsIf0ZZTyAxKja018i5l-30" target="tsIf0ZZTyAxKja018i5l-34">
          <mxGeometry relative="1" as="geometry">
            <mxPoint x="260" y="240" as="targetPoint" />
          </mxGeometry>
        </mxCell>
        <mxCell id="tsIf0ZZTyAxKja018i5l-33" style="edgeStyle=orthogonalEdgeStyle;rounded=0;orthogonalLoop=1;jettySize=auto;html=1;entryX=0.5;entryY=0;entryDx=0;entryDy=0;" edge="1" parent="1" source="tsIf0ZZTyAxKja018i5l-30" target="tsIf0ZZTyAxKja018i5l-10">
          <mxGeometry relative="1" as="geometry">
            <Array as="points">
              <mxPoint x="770" y="90" />
            </Array>
          </mxGeometry>
        </mxCell>
        <mxCell id="tsIf0ZZTyAxKja018i5l-62" style="edgeStyle=orthogonalEdgeStyle;rounded=0;orthogonalLoop=1;jettySize=auto;html=1;entryX=0.5;entryY=0;entryDx=0;entryDy=0;" edge="1" parent="1" source="tsIf0ZZTyAxKja018i5l-30" target="tsIf0ZZTyAxKja018i5l-46">
          <mxGeometry relative="1" as="geometry" />
        </mxCell>
        <mxCell id="tsIf0ZZTyAxKja018i5l-65" style="edgeStyle=orthogonalEdgeStyle;rounded=0;orthogonalLoop=1;jettySize=auto;html=1;entryX=1;entryY=0.5;entryDx=0;entryDy=0;" edge="1" parent="1" source="tsIf0ZZTyAxKja018i5l-30" target="tsIf0ZZTyAxKja018i5l-4">
          <mxGeometry relative="1" as="geometry">
            <Array as="points">
              <mxPoint x="380" y="170" />
              <mxPoint x="600" y="170" />
              <mxPoint x="600" y="565" />
            </Array>
          </mxGeometry>
        </mxCell>
        <mxCell id="tsIf0ZZTyAxKja018i5l-30" value="UI" style="rounded=0;whiteSpace=wrap;html=1;" vertex="1" parent="1">
          <mxGeometry x="320" y="60" width="120" height="60" as="geometry" />
        </mxCell>
        <mxCell id="tsIf0ZZTyAxKja018i5l-34" value="wsd_control" style="rounded=0;whiteSpace=wrap;html=1;" vertex="1" parent="1">
          <mxGeometry x="320" y="310" width="120" height="60" as="geometry" />
        </mxCell>
        <mxCell id="tsIf0ZZTyAxKja018i5l-38" value="" style="group" vertex="1" connectable="0" parent="1">
          <mxGeometry x="530" y="40" width="200" height="100" as="geometry" />
        </mxCell>
        <mxCell id="tsIf0ZZTyAxKja018i5l-37" value="" style="rounded=1;whiteSpace=wrap;html=1;" vertex="1" parent="tsIf0ZZTyAxKja018i5l-38">
          <mxGeometry width="200" height="100" as="geometry" />
        </mxCell>
        <mxCell id="tsIf0ZZTyAxKja018i5l-36" value="UI utilizes coolign class to fetch current temperature and fan speed. Additionaly run() function from cooling class is separatly threaded to run automatic fan adjustements in the background" style="text;html=1;align=center;verticalAlign=middle;whiteSpace=wrap;rounded=0;" vertex="1" parent="tsIf0ZZTyAxKja018i5l-38">
          <mxGeometry y="40" width="200" height="30" as="geometry" />
        </mxCell>
        <mxCell id="tsIf0ZZTyAxKja018i5l-39" value="For manual control, UI script starts wsd control script and sends it buttons pressed by user to move motors" style="rounded=1;whiteSpace=wrap;html=1;" vertex="1" parent="1">
          <mxGeometry x="285" y="220" width="190" height="60" as="geometry" />
        </mxCell>
        <mxCell id="tsIf0ZZTyAxKja018i5l-41" value="wsd contol script initializes three motor classes and sends them commands based on user input" style="rounded=1;whiteSpace=wrap;html=1;" vertex="1" parent="1">
          <mxGeometry x="285" y="380" width="190" height="60" as="geometry" />
        </mxCell>
        <mxCell id="tsIf0ZZTyAxKja018i5l-44" value="For plaing path, ui initializes arm class that will handle movement of the motor based on demanded path" style="rounded=1;whiteSpace=wrap;html=1;" vertex="1" parent="1">
          <mxGeometry x="40" y="60" width="200" height="60" as="geometry" />
        </mxCell>
        <mxCell id="tsIf0ZZTyAxKja018i5l-66" style="edgeStyle=orthogonalEdgeStyle;rounded=0;orthogonalLoop=1;jettySize=auto;html=1;entryX=0;entryY=0.5;entryDx=0;entryDy=0;" edge="1" parent="1" source="tsIf0ZZTyAxKja018i5l-46" target="tsIf0ZZTyAxKja018i5l-4">
          <mxGeometry relative="1" as="geometry" />
        </mxCell>
        <mxCell id="tsIf0ZZTyAxKja018i5l-46" value="Arm" style="swimlane;fontStyle=0;childLayout=stackLayout;horizontal=1;startSize=30;horizontalStack=0;resizeParent=1;resizeParentMax=0;resizeLast=0;collapsible=1;marginBottom=0;whiteSpace=wrap;html=1;" vertex="1" parent="1">
          <mxGeometry x="50" y="170" width="140" height="270" as="geometry" />
        </mxCell>
        <mxCell id="tsIf0ZZTyAxKja018i5l-47" value="get_base_pos()&lt;span style=&quot;white-space: pre;&quot;&gt;&#x9;&lt;/span&gt;" style="text;strokeColor=none;fillColor=none;align=left;verticalAlign=middle;spacingLeft=4;spacingRight=4;overflow=hidden;points=[[0,0.5],[1,0.5]];portConstraint=eastwest;rotatable=0;whiteSpace=wrap;html=1;" vertex="1" parent="tsIf0ZZTyAxKja018i5l-46">
          <mxGeometry y="30" width="140" height="30" as="geometry" />
        </mxCell>
        <mxCell id="tsIf0ZZTyAxKja018i5l-48" value="get_tip_pos()" style="text;strokeColor=none;fillColor=none;align=left;verticalAlign=middle;spacingLeft=4;spacingRight=4;overflow=hidden;points=[[0,0.5],[1,0.5]];portConstraint=eastwest;rotatable=0;whiteSpace=wrap;html=1;" vertex="1" parent="tsIf0ZZTyAxKja018i5l-46">
          <mxGeometry y="60" width="140" height="30" as="geometry" />
        </mxCell>
        <mxCell id="tsIf0ZZTyAxKja018i5l-49" value="get_joint_angles" style="text;strokeColor=none;fillColor=none;align=left;verticalAlign=middle;spacingLeft=4;spacingRight=4;overflow=hidden;points=[[0,0.5],[1,0.5]];portConstraint=eastwest;rotatable=0;whiteSpace=wrap;html=1;" vertex="1" parent="tsIf0ZZTyAxKja018i5l-46">
          <mxGeometry y="90" width="140" height="30" as="geometry" />
        </mxCell>
        <mxCell id="tsIf0ZZTyAxKja018i5l-50" value="calc_joint_angles()" style="text;strokeColor=none;fillColor=none;align=left;verticalAlign=middle;spacingLeft=4;spacingRight=4;overflow=hidden;points=[[0,0.5],[1,0.5]];portConstraint=eastwest;rotatable=0;whiteSpace=wrap;html=1;" vertex="1" parent="tsIf0ZZTyAxKja018i5l-46">
          <mxGeometry y="120" width="140" height="30" as="geometry" />
        </mxCell>
        <mxCell id="tsIf0ZZTyAxKja018i5l-51" value="cal_pos()" style="text;strokeColor=none;fillColor=none;align=left;verticalAlign=middle;spacingLeft=4;spacingRight=4;overflow=hidden;points=[[0,0.5],[1,0.5]];portConstraint=eastwest;rotatable=0;whiteSpace=wrap;html=1;" vertex="1" parent="tsIf0ZZTyAxKja018i5l-46">
          <mxGeometry y="150" width="140" height="30" as="geometry" />
        </mxCell>
        <mxCell id="tsIf0ZZTyAxKja018i5l-52" value="set_joint_angles()&lt;span style=&quot;white-space: pre;&quot;&gt;&#x9;&lt;/span&gt;" style="text;strokeColor=none;fillColor=none;align=left;verticalAlign=middle;spacingLeft=4;spacingRight=4;overflow=hidden;points=[[0,0.5],[1,0.5]];portConstraint=eastwest;rotatable=0;whiteSpace=wrap;html=1;" vertex="1" parent="tsIf0ZZTyAxKja018i5l-46">
          <mxGeometry y="180" width="140" height="30" as="geometry" />
        </mxCell>
        <mxCell id="tsIf0ZZTyAxKja018i5l-53" value="set_tip_pos" style="text;strokeColor=none;fillColor=none;align=left;verticalAlign=middle;spacingLeft=4;spacingRight=4;overflow=hidden;points=[[0,0.5],[1,0.5]];portConstraint=eastwest;rotatable=0;whiteSpace=wrap;html=1;" vertex="1" parent="tsIf0ZZTyAxKja018i5l-46">
          <mxGeometry y="210" width="140" height="30" as="geometry" />
        </mxCell>
        <mxCell id="tsIf0ZZTyAxKja018i5l-54" value="plot()" style="text;strokeColor=none;fillColor=none;align=left;verticalAlign=middle;spacingLeft=4;spacingRight=4;overflow=hidden;points=[[0,0.5],[1,0.5]];portConstraint=eastwest;rotatable=0;whiteSpace=wrap;html=1;" vertex="1" parent="tsIf0ZZTyAxKja018i5l-46">
          <mxGeometry y="240" width="140" height="30" as="geometry" />
        </mxCell>
        <mxCell id="tsIf0ZZTyAxKja018i5l-64" value="For initializing motors, ui will directly run motors until they are in required positions" style="rounded=1;whiteSpace=wrap;html=1;" vertex="1" parent="1">
          <mxGeometry x="500" y="290" width="200" height="60" as="geometry" />
        </mxCell>
      </root>
    </mxGraphModel>
  </diagram>
</mxfile>
